/* XPM */
static char *_be271d7fed14fc89eef9153e0b94eca[] = {
/* columns rows colors chars-per-pixel */
"16 16 26 1 ",
"  c #00B132",
". c #00B034",
"X c #0DA44C",
"o c #0FA151",
"O c #10A053",
"+ c #218F73",
"@ c #268B7C",
"# c #278A7D",
"$ c #209171",
"% c #337E95",
"& c #357C98",
"* c #38799D",
"= c #3A77A2",
"- c #3C75A6",
"; c #4071AD",
": c #4170AF",
"> c #426FB0",
", c #426FB1",
"< c #436EB2",
"1 c #426FB2",
"2 c #436EB3",
"3 c #436EB4",
"4 c #476ABA",
"5 c #2A8782",
"6 c #2E848A",
"7 c None",
/* pixels */
"7777777777777777",
"7777777777777777",
"7777772222777777",
"7777237777277777",
"7773777777772777",
"77777.77-&272777",
"77277.7=5X;27277",
"77277. #6$277277",
"77277.7;*%277277",
"77277.74$o177777",
"77277777#O277777",
"7772777777227777",
"7777277777227777",
"7777722222777777",
"7777777727777777",
"7777777777777777"
};
