/* XPM */
static char *b589c14e2c32490cb4cd8f792628e027[] = {
/* columns rows colors chars-per-pixel */
"64 64 60 1 ",
"  c #01AF36",
". c #02AF36",
"X c #03AF37",
"o c #00B131",
"O c #00B230",
"+ c #00B231",
"@ c #00B132",
"# c #00B033",
"$ c #00B133",
"% c #00B034",
"& c #139F56",
"* c #189B5D",
"= c #199A5E",
"- c #189B5E",
"; c #08AA41",
": c #09A942",
"> c #0AA943",
", c #0EA44B",
"< c #10A24F",
"1 c #1C9764",
"2 c #1F946B",
"3 c #268C79",
"4 c #278C7B",
"5 c #278B7C",
"6 c #288B7C",
"7 c #29897E",
"8 c #288A7E",
"9 c #298A7E",
"0 c #298A7F",
"q c #377B9B",
"w c #357C98",
"e c #387A9D",
"r c #3B76A4",
"t c #3C76A5",
"y c #3D75A6",
"u c #3D75A7",
"i c #3E73A9",
"p c #3F73AA",
"a c #3F72AB",
"s c #426FAE",
"d c #436FAF",
"f c #4071AD",
"g c #4072AC",
"h c #4170AF",
"j c #436FB0",
"k c #436EB1",
"l c #436FB1",
"z c #436EB2",
"x c #436EB3",
"c c #436DB4",
"v c #436EB4",
"b c #446DB4",
"n c #446DB5",
"m c #456DB5",
"M c #446DB6",
"N c #456CB7",
"B c #2B8784",
"V c #2B8881",
"C c #2C8883",
"Z c None",
/* pixels */
"ZZZZZZZZZZZZZZZZZZZZZZZZZZZZZZZZZZZZZZZZZZZZZZZZZZZZZZZZZZZZZZZZ",
"ZZZZZZZZZZZZZZZZZZZZZZZZZZZZZZZZZZZZZZZZZZZZZZZZZZZZZZZZZZZZZZZZ",
"ZZZZZZZZZZZZZZZZZZZZZZZZZZZZZZZZZZZZZZZZZZZZZZZZZZZZZZZZZZZZZZZZ",
"ZZZZZZZZZZZZZZZZZZZZZZZZZZZZZZZZZZZZZZZZZZZZZZZZZZZZZZZZZZZZZZZZ",
"ZZZZZZZZZZZZZZZZZZZZZZZZZZxxxZZZZZxxxZZZZZZZZZZZZZZZZZZZZZZZZZZZ",
"ZZZZZZZZZZZZZZZZZZZZZZZZZZxxxZZZZZxxxZZZZZZZZZZZZZZZZZZZZZZZZZZZ",
"ZZZZZZZZZZZZZZZZZZZZZZZZZZxxxZZZZZxxxZZZZZZZZZZZZZZZZZZZZZZZZZZZ",
"ZZZZZZZZZZZZZZZZZZZZZZZZZZxxxZZZZZxxxZZZZZZZZZZZZZZZZZZZZZZZZZZZ",
"ZZZZZZZZZZZZZZZZZZZZZZZZZZxxxZZZZZxxxZZZZZZZZZZZZZZZZZZZZZZZZZZZ",
"ZZZZZZZZZZZZZZZZZZZZZZZZZZxxxxxxxZxxxZZZZZZZZZZZZZZZZZZZZZZZZZZZ",
"ZZZZZZZZZZZZZZZZZZZZZZZZxxxxxxxxxxxxxxxZZZZZZZZZZZZZZZZZZZZZZZZZ",
"ZZZZZZZZZZZZZZZZZZZZZxxxxxxxxxxxxxxxxxxxxxZZZZZZZZZZZZZZZZZZZZZZ",
"ZZZZZZZZZZZZZZZZZZZxxxxxxxxxxZZZZZZxxxxxxxxxZZZZZZZZZZZZZZZZZZZZ",
"ZZZZZZZZZZZZZZZZZZxxxxxxZZZZZZZZZZZZZZZxxxxxxZZZZZZZZZZZZZZZZZZZ",
"ZZZZZZZZZZZZZZZZxxxxxxZZZZZZZZZZZZZZZZZZZxxxxxxZZZZZZZZZZZZZZZZZ",
"ZZZZZZZZZZZZZZZxxxxxZZZZZZZZZZZZZZZZZZZZZZZxxxxxZZZZZZZZZZZZZZZZ",
"ZZZZZZZZZZZZZZxxxxxZZZZZZZZZZZZZZZZZZZZZZZZZZxxxxZZZZZZZZZZZZZZZ",
"ZZZZZZZZZZZZZxxxxZZZZZZZZZZZZZZZZZZZZZZZZZZZZZxxxxZZZZZZZZZZZZZZ",
"ZZZZZZZZZZZZxxxxZZZZ%%%%%ZZZZZZZZZ%%%%%%ZZZZZZZxxxxZZZZZZZZZZZZZ",
"ZZZZZZZZZZZZxxxZZZZZ%%%%ZZZZZZZZZZZ####ZZZZZZZZZxxxxZZZZZZZZZZZZ",
"ZZZZZZZZZZZxxxxZZZZZ%%%%ZZZZZZxxlvuCV58uZZZZZZZZZxxxZZZZZZZZZZZZ",
"ZZZZZZZZZZxxxxZZZZZZ%%%%ZZZZZZxxvvbbbbvvxxxxZZZZZZxxxZZZZZZZZZZZ",
"ZZZZZZZZZZxxxZZZZZZZ%%%%ZZZZZZxxxvvvxxxxxxxxxZZZZZxxxxZZZZZZZZZZ",
"ZZZZZZZZZZxxxZZZZZZZ%%%%ZZZZZZxxxvlvxxvxxxxxxZZZZZZxxxZZZZZZZZZZ",
"ZZZZZZZZZxxxZZZZZZZZ%%%%ZZZZZZxxxbZ---1ZZxxxxxZZZZZxxxZZZZZZZZZZ",
"ZZZZZZZZZxxxZZZZZZZZ%%%%ZZZZZZxxvbZ###+ZZZxxxxZZZZZZxxxZZZZZZZZZ",
"ZZZZZZZZxxxxZZZZZZZZ%%%%ZZZZZZxxvbZ%%%%ZZZZxxxZZZZZZxxxZZZZZZZZZ",
"ZZZZZZZZxxxZZZZZZZZZ%%%%%ZZZZZgxbqZ%%%%ZZZZxxxZZZZZZxxxZZZZZZZZZ",
"ZZZZZZZZxxxZZZZZZZZZ%%%%%%%%#;rxM9+%%##ZZZZxxxZZZZZZZxxxZZZZZZZZ",
"ZZZZZZZZxxxZZZZZZZZZ%%%%%%%%%;ubM5+$##+ZZZxxxxZZZZZZZxxxZZZZZZZZ",
"ZZZZZZZZxxxZZZZZZZZZ%%%%%%%%#;ubMqV5949gxxxxxxZZZZZZZxxxZZZZZZZZ",
"ZZZZZZZZxxxZZZZZZZZZ%%%%%%%%#,gxvbMbvbbxxxxxxZZZZZZZZxxxZZZZZZZZ",
"ZZZZZZZZxxxZZZZZZZZZ%%%%ZZZZZZxxlvxxxxxxxxxxxZZZZZZZZxxxZZZZZZZZ",
"ZZZZZZZZxxxZZZZZZZZZ%%%%ZZZZZZxxlvxlxvxxxxxZZZZZZZZZZxxxZZZZZZZZ",
"ZZZZZZZZxxxZZZZZZZZZ%%%%ZZZZZZxxvbV--2ubxxZZZZZZZZZZZxxxZZZZZZZZ",
"ZZZZZZZZxxxZZZZZZZZZ%%%%ZZZZZZxxvZZ##%CbxxZZZZZZZZZZZxxxZZZZZZZZ",
"ZZZZZZZZxxxZZZZZZZZZ%%%%ZZZZZZxxMZZ%%#&lxxxZZZZZZZZZxxxxZZZZZZZZ",
"ZZZZZZZZxxxZZZZZZZZZ%%%%ZZZZZZxxlZZ%%%%lxxxZZZZZZZZZZZZZZZZZZZZZ",
"ZZZZZZZZxxxZZZZZZZZZ%%%%ZZZZZZxxvZZ%%%+ZxxxxZZZZZZZZZZZZZZZZZZZZ",
"ZZZZZZZZZxxxZZZZZZZZ%%%%ZZZZZZxxlZZ%%%%ZxxxxZZZZZZZZZZZZZZZZZZZZ",
"ZZZZZZZZZxxxZZZZZZZZ%%%%ZZZZZZxxvZZ%%%%ZZxxxxZZZZZZZZZZZZZZZZZZZ",
"ZZZZZZZZZxxxxZZZZZZ%%%%%ZZZZZZxxvZ#%%%%ZZxxxxZZZZZZZZZZZZZZZZZZZ",
"ZZZZZZZZZZxxxZZZZZZZZZZZZZZZZZxxlq##X<%ZZxxxxxZZZZZZZZZZZZZZZZZZ",
"ZZZZZZZZZZxxxxZZZZZZZZZZZZZZZxxxlvZZZbZZZxxxxxxZZZZZZZZZZZZZZZZZ",
"ZZZZZZZZZZZxxxZZZZZZZZZZZZZZZZZZZZZZZlxxxxxxxxxZZZZZZZZZZZZZZZZZ",
"ZZZZZZZZZZZxxxxZZZZZZZZZZZZZZZZZZZZZZxxxxxxxxxZZZZZZZZZZZZZZZZZZ",
"ZZZZZZZZZZZZxxxxZZZZZZZZZZZZZZZZZZZZZxxxxxxxxxZZZZZZZZZZZZZZZZZZ",
"ZZZZZZZZZZZZZxxxxZZZZZZZZZZZZZZZZZZZZlZZZZZxxxZZZZZZZZZZZZZZZZZZ",
"ZZZZZZZZZZZZZZxxxxZZZZZZZZZZZZZZZZZZZZZZZZZxxxZZZZZZZZZZZZZZZZZZ",
"ZZZZZZZZZZZZZZZxxxxZZZZZZZZZZZZZZZZZZZZZZZZxxxZZZZZZZZZZZZZZZZZZ",
"ZZZZZZZZZZZZZZZZxxxxxZZZZZZZZZZZZZZZZZZZZZZxxxZZZZZZZZZZZZZZZZZZ",
"ZZZZZZZZZZZZZZZZZxxxxxxZZZZZZZZZZZZZZZZZZxxxxxZZZZZZZZZZZZZZZZZZ",
"ZZZZZZZZZZZZZZZZZZZxxxxxxxZZZZZZZZZZZZxxxgxxxxZZZZZZZZZZZZZZZZZZ",
"ZZZZZZZZZZZZZZZZZZZZxxxxxxxxxxxxxxxxxxxxxxdZZZZZZZZZZZZZZZZZZZZZ",
"ZZZZZZZZZZZZZZZZZZZZZZZxxxxxxxxxxxxxxxxxxZZZZZZZZZZZZZZZZZZZZZZZ",
"ZZZZZZZZZZZZZZZZZZZZZZZZZZxxxxxxxxxxxxZZZZZZZZZZZZZZZZZZZZZZZZZZ",
"ZZZZZZZZZZZZZZZZZZZZZZZZZZxxxxZZZZxxxZZZZZZZZZZZZZZZZZZZZZZZZZZZ",
"ZZZZZZZZZZZZZZZZZZZZZZZZZZxxxZZZZZxxxZZZZZZZZZZZZZZZZZZZZZZZZZZZ",
"ZZZZZZZZZZZZZZZZZZZZZZZZZZxxxZZZZZxxxZZZZZZZZZZZZZZZZZZZZZZZZZZZ",
"ZZZZZZZZZZZZZZZZZZZZZZZZZZxxxZZZZZxxxZZZZZZZZZZZZZZZZZZZZZZZZZZZ",
"ZZZZZZZZZZZZZZZZZZZZZZZZZZxxxZZZZZxxxZZZZZZZZZZZZZZZZZZZZZZZZZZZ",
"ZZZZZZZZZZZZZZZZZZZZZZZZZZZZZZZZZZZZZZZZZZZZZZZZZZZZZZZZZZZZZZZZ",
"ZZZZZZZZZZZZZZZZZZZZZZZZZZZZZZZZZZZZZZZZZZZZZZZZZZZZZZZZZZZZZZZZ",
"ZZZZZZZZZZZZZZZZZZZZZZZZZZZZZZZZZZZZZZZZZZZZZZZZZZZZZZZZZZZZZZZZ"
};
