/* XPM */
static char *a2afd01560fa4837e1713cb37905b137[] = {
/* columns rows colors chars-per-pixel */
"32 32 42 1 ",
"  c #01AF35",
". c #01AF36",
"X c #02AE37",
"o c #03AE38",
"O c #03AE39",
"+ c #04AD3A",
"@ c #05AC3C",
"# c #00B231",
"$ c #00B132",
"% c #00B033",
"& c #00B133",
"* c #00B034",
"= c #139F56",
"- c #129E57",
"; c #169C5B",
": c #09A843",
"> c #0BA648",
", c #0FA34E",
"< c #199962",
"1 c #1A9863",
"2 c #268B7B",
"3 c #327F92",
"4 c #347E95",
"5 c #357D96",
"6 c #39799F",
"7 c #3A77A1",
"8 c #3C75A6",
"9 c #3978A0",
"0 c #3F72AB",
"q c #3E74A8",
"w c #3F72AC",
"e c #4170AF",
"r c #436EB1",
"t c #426FB1",
"y c #436EB2",
"u c #436EB3",
"i c #436EB4",
"p c #446DB4",
"a c #446DB5",
"s c #446DB6",
"d c #4270B0",
"f c None",
/* pixels */
"ffffffffffffffffffffffffffffffff",
"ffffffffffffffffffffffffffffffff",
"fffffffffffffuuffuufffffffffffff",
"fffffffffffffuuffuufffffffffffff",
"fffffffffffffuuffuufffffffffffff",
"fffffffffffuuuuuuuuuffffffffffff",
"fffffffffuuuuffffffuuuffffffffff",
"ffffffffuufffffffffffuuuffffffff",
"fffffffuuffffffffffffffuufffffff",
"ffffffuuff**fffff+++ffffuuffffff",
"fffffuufff**fffui736iffffuffffff",
"fffffuufff**fffuuueuuuuffuufffff",
"ffffuuffff**fffui<,1fuufffufffff",
"ffffuuffff**fffeq+&ffuufffuuffff",
"ffffufffff***&:84@Xffuufffuuffff",
"ffffufffff***&>qe437iuufffuuffff",
"ffffufffff**fffuuueuiifffffpffff",
"ffffufffff**fffuu;=6ifffffppffff",
"ffffufffff**fffuu*&2iffffffiffff",
"ffffuuffff**fffuu*&=iuffffffffff",
"fffffuffff**fffuqX*fiiffffffffff",
"fffffuuffffffffuqffffiufffffffff",
"ffffffuffffffffffffipuufffffffff",
"ffffffuufffffffffffippufffffffff",
"fffffffuufffffffffffffdfffffffff",
"ffffffffuuuffffffffffpifffffffff",
"ffffffffffuuuuffffuuuuffffffffff",
"ffffffffffffuuuuuuuuffffffffffff",
"fffffffffffffuuffuufffffffffffff",
"fffffffffffffuuffuufffffffffffff",
"ffffffffffffffffffffffffffffffff",
"ffffffffffffffffffffffffffffffff"
};
